<svg width="32" height="32" viewBox="0 0 32 32" fill="none" xmlns="http://www.w3.org/2000/svg">
<path fill-rule="evenodd" clip-rule="evenodd" d="M15.4415 7C14.1502 7 13.0038 7.82629 12.5955 9.05132L12.2792 10H11H10C9.44772 10 9 10.4477 9 11C9 11.5523 9.44772 12 10 12V24C10 24.5523 10.4477 25 11 25H21C21.5523 25 22 24.5523 22 24V12C22.5523 12 23 11.5523 23 11C23 10.4477 22.5523 10 22 10H21H19.7208L19.4045 9.05132C18.9962 7.82629 17.8498 7 16.5585 7H15.4415ZM20 12H19H13H12V23H20V12ZM17.6126 10L17.5072 9.68377C17.3711 9.27543 16.9889 9 16.5585 9H15.4415C15.0111 9 14.6289 9.27543 14.4928 9.68377L14.3874 10H17.6126Z" fill="#222222"/>
</svg>
