<svg width="32" height="32" viewBox="0 0 32 32" fill="none" xmlns="http://www.w3.org/2000/svg">
<path fill-rule="evenodd" clip-rule="evenodd" d="M16 7C15.4477 7 15 7.44772 15 8V11C15 11.5523 15.4477 12 16 12C16.5523 12 17 11.5523 17 11V9H23V23H17V21C17 20.4477 16.5523 20 16 20C15.4477 20 15 20.4477 15 21V24C15 24.5523 15.4477 25 16 25H24C24.5523 25 25 24.5523 25 24V8C25 7.44772 24.5523 7 24 7H16ZM10.2929 12.2929C10.6834 11.9024 11.3166 11.9024 11.7071 12.2929C12.0976 12.6834 12.0976 13.3166 11.7071 13.7071L10.4142 15H20C20.5523 15 21 15.4477 21 16C21 16.5523 20.5523 17 20 17H10.4142L11.7071 18.2929C12.0976 18.6834 12.0976 19.3166 11.7071 19.7071C11.3166 20.0976 10.6834 20.0976 10.2929 19.7071L7.29289 16.7071C6.90237 16.3166 6.90237 15.6834 7.29289 15.2929L10.2929 12.2929Z" fill="#222222"/>
</svg>
