<svg width="32" height="32" viewBox="0 0 32 32" fill="none" xmlns="http://www.w3.org/2000/svg">
<path d="M17.9142 9.9853L22.0858 14.1569L14.8009 21.4417L8.94609 23.0539L10.5583 17.1991L20.2604 7.497C20.4071 7.40524 20.8359 7.1716 21.4099 7.13791C21.9827 7.1043 22.8167 7.26035 23.7782 8.22183C24.7397 9.1833 24.8957 10.0173 24.8621 10.5901C24.8284 11.1641 24.5948 11.5929 24.503 11.7396L23.5 12.7426L19.3284 8.57108L17.9142 9.9853ZM20.2787 7.47867C20.2791 7.47827 20.2791 7.47832 20.2786 7.47878L20.2787 7.47867ZM24.5213 11.7213L24.5212 11.7214C24.5215 11.7212 24.5216 11.721 24.5216 11.721C24.5216 11.721 24.5215 11.7211 24.5213 11.7213Z" stroke="#222222" stroke-width="2"/>
</svg>
