<svg width="32" height="32" viewBox="0 0 32 32" fill="none" xmlns="http://www.w3.org/2000/svg">
<path fill-rule="evenodd" clip-rule="evenodd" d="M9 9H19V19H9L9 9ZM7 9C7 7.89543 7.89543 7 9 7H19C20.1046 7 21 7.89543 21 9V11H22C23.6569 11 25 12.3431 25 14V22C25 23.6569 23.6569 25 22 25H14C12.3431 25 11 23.6569 11 22V21H9C7.89543 21 7 20.1046 7 19V9ZM13 21V22C13 22.5523 13.4477 23 14 23H22C22.5523 23 23 22.5523 23 22V14C23 13.4477 22.5523 13 22 13H21V19C21 20.1046 20.1046 21 19 21H13Z" fill="#222222"/>
</svg>
